<svg xmlns="http://www.w3.org/2000/svg" width="365" height="336" viewBox="0 0 365 336" version="1.1">
  <path d="M 173 60.979 C 162.306 63.292, 157.250 65.129, 149.217 69.621 C 136.110 76.951, 121.848 93.484, 116.882 107.104 C 114.987 112.300, 114.413 113, 112.048 113 C 107.677 113, 95.754 116.473, 89.407 119.594 C 81.686 123.392, 68.576 136.405, 64.307 144.507 C 48.174 175.126, 59.340 212.350, 89 226.823 C 100.008 232.195, 103.848 232.688, 141.052 233.509 C 168.659 234.118, 171.734 234.025, 172.964 232.543 C 174.815 230.313, 172.348 225.118, 167.814 221.702 C 161.612 217.030, 156.097 215.959, 133.059 214.952 C 105.161 213.734, 98.197 211.832, 88.330 202.736 C 71.173 186.922, 72.341 159.324, 90.864 142.845 C 98.517 136.036, 104.651 133.771, 117.289 133.089 L 128.195 132.500 130.429 125.500 C 134.618 112.374, 140.729 103.400, 150.691 95.743 C 163.303 86.050, 173.660 82.550, 189.500 82.628 C 198.979 82.675, 201.464 83.056, 207.474 85.381 C 216.757 88.972, 222.589 92.840, 229.248 99.821 C 238.060 109.059, 242.283 119.238, 244.436 136.422 L 245.553 145.343 252.432 146.734 C 261.567 148.580, 267.566 151.760, 273.123 157.701 C 279.546 164.567, 282.283 172.212, 281.822 182 C 281.578 187.171, 280.773 190.923, 279.227 194.081 C 275.925 200.829, 267.134 209.317, 259.611 213.020 C 253.574 215.992, 252.143 216.258, 237.825 217.066 C 213.377 218.446, 208.123 219.689, 203.496 225.187 C 200.578 228.655, 200.335 231.192, 202.694 233.551 C 204.228 235.085, 206.854 235.195, 230.444 234.715 C 265.308 234.005, 270.711 232.346, 285.146 217.917 C 297.461 205.608, 302.962 191.577, 301.557 176.063 C 299.564 154.078, 286.924 137.162, 266.796 129.544 C 262.209 127.808, 262.066 127.625, 261.015 122.132 C 254.567 88.438, 233.387 66.597, 201.162 60.409 C 191.541 58.562, 183.418 58.726, 173 60.979 M 182.274 119.662 C 172.848 129.731, 169 138.809, 169 150.978 C 169 159.005, 170.918 166.518, 174.150 171.154 C 176.934 175.148, 176.425 175.320, 171.781 171.956 C 166.551 168.168, 161.019 165.684, 154.133 164.032 C 149.069 162.817, 139.662 163.005, 138.319 164.348 C 137.103 165.563, 138.044 174.931, 140.026 181.348 C 144.878 197.057, 157.743 209.354, 173.666 213.501 C 176.816 214.322, 179.766 215.366, 180.223 215.823 C 180.679 216.279, 180.928 223.818, 180.776 232.576 L 180.500 248.500 160.167 249 C 141.517 249.459, 139.717 249.661, 138.417 251.441 C 136.417 254.181, 136.658 258.256, 138.968 260.736 C 142.002 263.992, 148.712 264.363, 192.355 263.687 C 234.063 263.042, 234.320 263.011, 235.974 258.540 C 236.934 255.945, 235.358 251.375, 233.180 250.437 C 232.256 250.040, 223.287 249.499, 213.250 249.235 L 195 248.756 195 232.032 L 195 215.308 202.393 213.160 C 221.315 207.662, 236.740 187.428, 235.802 169.334 L 235.500 163.500 228.027 163.815 C 219.216 164.185, 210.136 166.962, 204.337 171.059 C 199.321 174.602, 198.467 174.742, 200.463 171.697 C 203.605 166.901, 206 157.733, 206 150.500 C 206 139.573, 201.693 128.789, 194.087 120.671 C 188.032 114.207, 187.429 114.156, 182.274 119.662 M 185.442 140.710 C 182.129 148.471, 182.595 160.362, 186.414 165.531 C 187.806 167.414, 187.945 167.326, 189.591 163.500 C 192.122 157.616, 192.468 150.408, 190.536 143.768 C 189.619 140.616, 188.462 137.786, 187.965 137.478 C 187.467 137.171, 186.332 138.625, 185.442 140.710 M 214 180.577 C 211.525 181.981, 207.550 185.013, 205.167 187.315 C 200.951 191.388, 196.352 198.685, 197.363 199.697 C 198.272 200.605, 204.766 197.952, 208.818 195.017 C 213.501 191.625, 217.335 186.835, 219.482 181.696 C 221.379 177.158, 220.384 176.955, 214 180.577 M 155 180.201 C 155 180.862, 156.456 183.806, 158.236 186.742 C 161.596 192.287, 169.159 198.339, 174.250 199.558 C 178.451 200.564, 177.842 197.111, 172.703 190.787 C 166.839 183.573, 155 176.493, 155 180.201" stroke="none" fill="#14465c" fill-rule="evenodd"/>
</svg>
