<?xml version="1.0" encoding="UTF-8"?>
<!DOCTYPE svg PUBLIC "-//W3C//DTD SVG 1.1//EN" "http://www.w3.org/Graphics/SVG/1.1/DTD/svg11.dtd">
<svg xmlns="http://www.w3.org/2000/svg" version="1.1" width="365px" height="336px" style="shape-rendering:geometricPrecision; text-rendering:geometricPrecision; image-rendering:optimizeQuality; fill-rule:evenodd; clip-rule:evenodd" xmlns:xlink="http://www.w3.org/1999/xlink">
<g><path style="opacity:1" fill="#fefefe" d="M -0.5,-0.5 C 121.167,-0.5 242.833,-0.5 364.5,-0.5C 364.5,111.5 364.5,223.5 364.5,335.5C 242.833,335.5 121.167,335.5 -0.5,335.5C -0.5,223.5 -0.5,111.5 -0.5,-0.5 Z"/></g>
<g><path style="opacity:1" fill="#5f7883" d="M 194.5,58.5 C 194.5,58.8333 194.5,59.1667 194.5,59.5C 185.435,59.457 176.435,60.1236 167.5,61.5C 176.184,58.9711 185.184,57.9711 194.5,58.5 Z"/></g>
<g><path style="opacity:1" fill="#c0d0d8" d="M 194.5,59.5 C 194.5,59.1667 194.5,58.8333 194.5,58.5C 197.518,58.3354 200.518,58.502 203.5,59C 206.601,59.6379 209.268,60.8046 211.5,62.5C 205.875,61.1832 200.208,60.1832 194.5,59.5 Z"/></g>
<g><path style="opacity:1" fill="#13465c" d="M 194.5,59.5 C 200.208,60.1832 205.875,61.1832 211.5,62.5C 229.063,68.3984 242.396,79.3984 251.5,95.5C 251.427,97.0269 252.094,98.0269 253.5,98.5C 254.656,100.824 255.656,103.157 256.5,105.5C 256.41,108.152 257.076,110.485 258.5,112.5C 259.369,116.844 260.369,121.177 261.5,125.5C 261.747,126.713 262.414,127.38 263.5,127.5C 268.484,130.659 273.818,133.326 279.5,135.5C 280.911,137.914 282.911,139.581 285.5,140.5C 299.078,155.155 303.745,172.155 299.5,191.5C 299.649,190.448 299.483,189.448 299,188.5C 296.546,197.408 292.546,205.408 287,212.5C 285.933,211.809 284.766,211.309 283.5,211C 284.711,210.107 284.711,209.274 283.5,208.5C 282.833,209.167 282.167,209.833 281.5,210.5C 279.253,209.626 276.92,209.292 274.5,209.5C 275.958,203.569 278.291,197.903 281.5,192.5C 281.08,190.674 281.08,188.674 281.5,186.5C 282.174,178.862 281.174,171.529 278.5,164.5C 278.573,162.973 277.906,161.973 276.5,161.5C 274.833,157.833 272.167,155.167 268.5,153.5C 266.678,151.99 264.678,150.657 262.5,149.5C 262.027,148.094 261.027,147.427 259.5,147.5C 254.616,146.098 249.616,145.431 244.5,145.5C 246.165,115.394 233.165,94.8943 205.5,84C 202.243,82.9571 198.91,82.4571 195.5,82.5C 189.013,81.346 182.346,81.1794 175.5,82C 172.524,82.7048 169.858,83.8714 167.5,85.5C 164.092,86.3668 160.758,87.5335 157.5,89C 149.345,94.8218 142.179,101.655 136,109.5C 134.544,112.076 133.377,114.742 132.5,117.5C 130.415,119.684 129.415,122.351 129.5,125.5C 128.784,127.556 128.117,129.723 127.5,132C 120.167,132.333 112.833,132.667 105.5,133C 103.685,133.757 102.019,134.59 100.5,135.5C 98.326,135.75 96.6594,136.75 95.5,138.5C 90.8841,140.782 87.2174,144.116 84.5,148.5C 83.0937,148.973 82.427,149.973 82.5,151.5C 80.7497,152.659 79.7497,154.326 79.5,156.5C 77.6896,159.145 76.6896,162.145 76.5,165.5C 73.5563,192.074 85.2229,208.241 111.5,214C 122.167,214.333 132.833,214.667 143.5,215C 149.098,215.067 154.431,215.901 159.5,217.5C 160.93,218.537 162.597,219.204 164.5,219.5C 166.027,219.427 167.027,220.094 167.5,221.5C 169.467,223.304 171.301,225.304 173,227.5C 173.877,229.674 173.377,231.341 171.5,232.5C 148.151,232.747 124.818,232.414 101.5,231.5C 99.3024,231.125 97.3024,230.458 95.5,229.5C 94.4863,228.326 93.153,227.66 91.5,227.5C 83.8385,224.671 77.1718,220.338 71.5,214.5C 70.9202,212.251 69.5869,210.585 67.5,209.5C 63.7112,203.587 60.7112,197.254 58.5,190.5C 58.5905,187.848 57.9238,185.515 56.5,183.5C 54.1171,154.765 65.1171,132.931 89.5,118C 92.2794,117.439 94.946,116.606 97.5,115.5C 103.4,114.043 109.4,113.377 115.5,113.5C 115.5,112.167 115.5,110.833 115.5,109.5C 124.521,84.4788 141.854,68.4788 167.5,61.5C 176.435,60.1236 185.435,59.457 194.5,59.5 Z"/></g>
<g><path style="opacity:1" fill="#95acb8" d="M 195.5,82.5 C 185.94,81.8803 176.606,82.8803 167.5,85.5C 169.858,83.8714 172.524,82.7048 175.5,82C 182.346,81.1794 189.013,81.346 195.5,82.5 Z"/></g>
<g><path style="opacity:1" fill="#7f94a4" d="M 251.5,95.5 C 252.906,95.9731 253.573,96.9731 253.5,98.5C 252.094,98.0269 251.427,97.0269 251.5,95.5 Z"/></g>
<g><path style="opacity:1" fill="#728f9c" d="M 256.5,105.5 C 257.924,107.515 258.59,109.848 258.5,112.5C 257.076,110.485 256.41,108.152 256.5,105.5 Z"/></g>
<g><path style="opacity:1" fill="#708895" d="M 115.5,109.5 C 115.5,110.833 115.5,112.167 115.5,113.5C 109.4,113.377 103.4,114.043 97.5,115.5C 102.773,112.997 108.439,111.997 114.5,112.5C 114.263,111.209 114.596,110.209 115.5,109.5 Z"/></g>
<g><path style="opacity:1" fill="#b4c6ce" d="M 185.5,115.5 C 186.946,114.387 188.613,114.22 190.5,115C 191.252,115.671 191.586,116.504 191.5,117.5C 189.858,115.919 187.858,115.253 185.5,115.5 Z"/></g>
<g><path style="opacity:1" fill="#a1b7c2" d="M 132.5,117.5 C 132.585,120.649 131.585,123.316 129.5,125.5C 129.415,122.351 130.415,119.684 132.5,117.5 Z"/></g>
<g><path style="opacity:1" fill="#697d8c" d="M 181.5,119.5 C 180.92,121.749 179.587,123.415 177.5,124.5C 178.08,122.251 179.413,120.585 181.5,119.5 Z"/></g>
<g><path style="opacity:1" fill="#d3e0e5" d="M 263.5,127.5 C 266.181,127.462 268.681,128.129 271,129.5C 271.772,129.355 272.439,129.022 273,128.5C 275.64,130.492 277.807,132.826 279.5,135.5C 273.818,133.326 268.484,130.659 263.5,127.5 Z"/></g>
<g><path style="opacity:1" fill="#c8d9e0" d="M 202.5,131.5 C 203.725,132.152 204.392,133.319 204.5,135C 205.031,137.817 205.364,140.65 205.5,143.5C 203.898,139.761 202.898,135.761 202.5,131.5 Z"/></g>
<g><path style="opacity:1" fill="#9eb3bd" d="M 129.5,125.5 C 129.768,128.119 129.435,130.619 128.5,133C 119.06,133.059 109.727,133.892 100.5,135.5C 102.019,134.59 103.685,133.757 105.5,133C 112.833,132.667 120.167,132.333 127.5,132C 128.117,129.723 128.784,127.556 129.5,125.5 Z"/></g>
<g><path style="opacity:1" fill="#a7bdc3" d="M 100.5,135.5 C 99.5144,137.408 97.8477,138.408 95.5,138.5C 96.6594,136.75 98.326,135.75 100.5,135.5 Z"/></g>
<g><path style="opacity:1" fill="#a2b8c0" d="M 279.5,135.5 C 282.089,136.419 284.089,138.086 285.5,140.5C 282.911,139.581 280.911,137.914 279.5,135.5 Z"/></g>
<g><path style="opacity:1" fill="#6c8792" d="M 259.5,147.5 C 261.027,147.427 262.027,148.094 262.5,149.5C 260.973,149.573 259.973,148.906 259.5,147.5 Z"/></g>
<g><path style="opacity:1" fill="#95aeba" d="M 84.5,148.5 C 84.573,150.027 83.9063,151.027 82.5,151.5C 82.427,149.973 83.0937,148.973 84.5,148.5 Z"/></g>
<g><path style="opacity:1" fill="#abbdc4" d="M 82.5,151.5 C 82.4077,153.848 81.4077,155.514 79.5,156.5C 79.7497,154.326 80.7497,152.659 82.5,151.5 Z"/></g>
<g><path style="opacity:1" fill="#aabdc9" d="M 79.5,156.5 C 79.4725,159.916 78.4725,162.916 76.5,165.5C 76.6896,162.145 77.6896,159.145 79.5,156.5 Z"/></g>
<g><path style="opacity:1" fill="#9fb4be" d="M 137.5,163.5 C 140.314,162.835 143.314,162.502 146.5,162.5C 151.107,162.316 155.44,162.983 159.5,164.5C 152.196,163.698 144.862,163.365 137.5,163.5 Z"/></g>
<g><path style="opacity:1" fill="#7d94a2" d="M 276.5,161.5 C 277.906,161.973 278.573,162.973 278.5,164.5C 277.094,164.027 276.427,163.027 276.5,161.5 Z"/></g>
<g><path style="opacity:1" fill="#c7d8e0" d="M 205.5,157.5 C 205.33,159.848 204.997,162.182 204.5,164.5C 204.64,166.03 205.307,167.03 206.5,167.5C 204.442,170.969 201.775,172.969 198.5,173.5C 201.63,168.419 203.963,163.086 205.5,157.5 Z"/></g>
<g><path style="opacity:1" fill="#a0b5bf" d="M 220.5,163.5 C 225.64,162.512 230.974,162.179 236.5,162.5C 236.818,167.032 236.485,171.366 235.5,175.5C 235.5,171.5 235.5,167.5 235.5,163.5C 230.5,163.5 225.5,163.5 220.5,163.5 Z"/></g>
<g><path style="opacity:1" fill="#bcd2da" d="M 169.5,161.5 C 170.977,164.357 172.31,167.357 173.5,170.5C 173.672,171.492 173.338,172.158 172.5,172.5C 170.611,171.396 168.945,170.063 167.5,168.5C 168.5,168.5 169.5,168.5 170.5,168.5C 170.007,166.194 169.674,163.861 169.5,161.5 Z"/></g>
<g><path style="opacity:1" fill="#e3f0f3" d="M 268.5,153.5 C 272.167,155.167 274.833,157.833 276.5,161.5C 276.427,163.027 277.094,164.027 278.5,164.5C 281.174,171.529 282.174,178.862 281.5,186.5C 278.735,195.007 273.735,202.007 266.5,207.5C 265.843,204.159 267.176,202.159 270.5,201.5C 271,200.5 271.5,199.5 272,198.5C 272.333,198.833 272.667,199.167 273,199.5C 273.318,197.939 274.151,196.772 275.5,196C 274.549,195.282 274.383,194.449 275,193.5C 278.905,190.317 280.405,186.15 279.5,181C 280.234,172.711 277.567,165.878 271.5,160.5C 271.833,159.833 272.167,159.167 272.5,158.5C 271.047,156.815 269.714,155.149 268.5,153.5 Z"/></g>
<g><path style="opacity:1" fill="#acbfc6" d="M 56.5,183.5 C 57.9238,185.515 58.5905,187.848 58.5,190.5C 57.0762,188.485 56.4095,186.152 56.5,183.5 Z"/></g>
<g><path style="opacity:1" fill="#13455c" d="M 185.5,115.5 C 187.858,115.253 189.858,115.919 191.5,117.5C 195.638,121.765 199.305,126.431 202.5,131.5C 202.898,135.761 203.898,139.761 205.5,143.5C 205.5,148.167 205.5,152.833 205.5,157.5C 203.963,163.086 201.63,168.419 198.5,173.5C 201.775,172.969 204.442,170.969 206.5,167.5C 211.008,165.669 215.675,164.336 220.5,163.5C 225.5,163.5 230.5,163.5 235.5,163.5C 235.5,167.5 235.5,171.5 235.5,175.5C 234.691,177.028 234.024,178.694 233.5,180.5C 232.159,184.156 230.659,187.823 229,191.5C 226.9,194.051 225.067,196.717 223.5,199.5C 223.167,199.5 222.833,199.5 222.5,199.5C 219.833,201.5 217.5,203.833 215.5,206.5C 210.243,209.139 204.91,211.472 199.5,213.5C 197.533,213.261 195.699,213.594 194,214.5C 193.5,225.828 193.333,237.162 193.5,248.5C 202.5,248.5 211.5,248.5 220.5,248.5C 224.851,248.969 229.184,249.636 233.5,250.5C 235.636,253.599 235.97,256.932 234.5,260.5C 233.735,261.612 232.735,262.279 231.5,262.5C 202.165,262.667 172.831,262.5 143.5,262C 141.846,261.392 140.179,260.892 138.5,260.5C 138.672,259.508 138.338,258.842 137.5,258.5C 137.148,255.927 137.648,253.594 139,251.5C 139.984,253.795 140.817,253.461 141.5,250.5C 154.327,249.833 166.994,249.167 179.5,248.5C 180.833,237.167 180.833,225.833 179.5,214.5C 172.643,213.271 165.977,211.104 159.5,208C 153.586,202.65 148.252,196.816 143.5,190.5C 143.065,187.843 142.065,185.509 140.5,183.5C 137.965,177.154 136.965,170.487 137.5,163.5C 144.862,163.365 152.196,163.698 159.5,164.5C 162.035,166.017 164.702,167.35 167.5,168.5C 168.945,170.063 170.611,171.396 172.5,172.5C 173.322,174.728 174.655,175.395 176.5,174.5C 175.479,173.099 174.479,171.765 173.5,170.5C 172.31,167.357 170.977,164.357 169.5,161.5C 168.407,154.55 168.24,147.55 169,140.5C 170.8,137.023 172.133,133.356 173,129.5C 174.517,127.76 176.017,126.094 177.5,124.5C 179.587,123.415 180.92,121.749 181.5,119.5C 182.833,118.167 184.167,116.833 185.5,115.5 Z"/></g>
<g><path style="opacity:1" fill="#a1b7bf" d="M 207.5,184.5 C 204.805,187.526 202.138,190.526 199.5,193.5C 200.768,189.233 203.435,186.233 207.5,184.5 Z"/></g>
<g><path style="opacity:1" fill="#ebf2f4" d="M 175.5,199.5 C 172.485,197.326 169.151,195.659 165.5,194.5C 163.284,193.797 161.451,192.464 160,190.5C 157.344,186.856 155.511,182.856 154.5,178.5C 165.155,181.325 172.488,187.825 176.5,198C 176.43,198.765 176.097,199.265 175.5,199.5 Z"/></g>
<g><path style="opacity:1" fill="#6f94a7" d="M 173.5,170.5 C 174.479,171.765 175.479,173.099 176.5,174.5C 174.655,175.395 173.322,174.728 172.5,172.5C 173.338,172.158 173.672,171.492 173.5,170.5 Z"/></g>
<g><path style="opacity:1" fill="#deebef" d="M 189.5,140.5 C 189.721,143.067 190.388,145.401 191.5,147.5C 192.099,153.853 190.932,159.853 188,165.5C 187.333,166.833 186.667,166.833 186,165.5C 181.6,156.509 181.433,147.509 185.5,138.5C 185.821,136.952 186.821,136.285 188.5,136.5C 188.433,137.959 188.766,139.292 189.5,140.5 Z"/></g>
<g><path style="opacity:1" fill="#fafcfb" d="M 185.5,138.5 C 186.117,138.389 186.617,138.056 187,137.5C 187.324,143.159 188.49,148.825 190.5,154.5C 190.263,157.063 189.763,157.063 189,154.5C 188.503,156.81 188.337,159.143 188.5,161.5C 187.5,161.5 186.5,161.5 185.5,161.5C 184.779,153.745 184.779,146.078 185.5,138.5 Z"/></g>
<g><path style="opacity:1" fill="#556c75" d="M 189.5,140.5 C 191.163,142.438 191.829,144.772 191.5,147.5C 190.388,145.401 189.721,143.067 189.5,140.5 Z"/></g>
<g><path style="opacity:1" fill="#abbcc4" d="M 140.5,183.5 C 142.065,185.509 143.065,187.843 143.5,190.5C 141.166,188.824 140.166,186.491 140.5,183.5 Z"/></g>
<g><path style="opacity:1" fill="#f1f7f8" d="M 205.5,196.5 C 203.315,196.704 201.315,197.37 199.5,198.5C 198.624,198.631 197.957,198.298 197.5,197.5C 198.127,196.583 198.461,195.583 198.5,194.5C 198.5,193.833 198.833,193.5 199.5,193.5C 202.138,190.526 204.805,187.526 207.5,184.5C 210.882,180.162 215.215,178.162 220.5,178.5C 216.879,185.8 211.879,191.8 205.5,196.5 Z"/></g>
<g><path style="opacity:1" fill="#afc5ca" d="M 165.5,194.5 C 169.151,195.659 172.485,197.326 175.5,199.5C 171.326,199.341 167.992,197.675 165.5,194.5 Z"/></g>
<g><path style="opacity:1" fill="#dae6e9" d="M 233.5,180.5 C 233.048,184.163 232.548,187.83 232,191.5C 230.242,192.469 229.742,193.636 230.5,195C 229.141,196.204 228.141,197.704 227.5,199.5C 226.135,198.193 224.802,198.193 223.5,199.5C 225.067,196.717 226.9,194.051 229,191.5C 230.659,187.823 232.159,184.156 233.5,180.5 Z"/></g>
<g><path style="opacity:1" fill="#abc5d4" d="M 198.5,194.5 C 198.461,195.583 198.127,196.583 197.5,197.5C 197.957,198.298 198.624,198.631 199.5,198.5C 199.5,198.833 199.5,199.167 199.5,199.5C 198.5,199.5 197.5,199.5 196.5,199.5C 196.12,197.302 196.787,195.635 198.5,194.5 Z"/></g>
<g><path style="opacity:1" fill="#567181" d="M 205.5,196.5 C 204.077,198.545 202.077,199.545 199.5,199.5C 199.5,199.167 199.5,198.833 199.5,198.5C 201.315,197.37 203.315,196.704 205.5,196.5 Z"/></g>
<g><path style="opacity:1" fill="#b4c7d1" d="M 222.5,199.5 C 221.167,202.833 218.833,205.167 215.5,206.5C 217.5,203.833 219.833,201.5 222.5,199.5 Z"/></g>
<g><path style="opacity:1" fill="#d1e1e6" d="M 297.5,199.5 C 297.859,207.151 294.525,212.151 287.5,214.5C 291.591,209.979 294.924,204.979 297.5,199.5 Z"/></g>
<g><path style="opacity:1" fill="#254b5d" d="M 281.5,186.5 C 281.08,188.674 281.08,190.674 281.5,192.5C 278.291,197.903 275.958,203.569 274.5,209.5C 276.92,209.292 279.253,209.626 281.5,210.5C 282.167,209.833 282.833,209.167 283.5,208.5C 284.711,209.274 284.711,210.107 283.5,211C 284.766,211.309 285.933,211.809 287,212.5C 292.546,205.408 296.546,197.408 299,188.5C 299.483,189.448 299.649,190.448 299.5,191.5C 298.629,194.112 297.963,196.779 297.5,199.5C 294.924,204.979 291.591,209.979 287.5,214.5C 282.44,219.892 276.774,224.559 270.5,228.5C 270.167,228.5 269.833,228.5 269.5,228.5C 270.234,227.292 270.567,225.959 270.5,224.5C 272.696,224.435 274.696,223.768 276.5,222.5C 277.833,221.5 277.833,220.5 276.5,219.5C 279.217,219.001 281.551,217.835 283.5,216C 280.993,212.905 279.326,213.405 278.5,217.5C 276.857,217.52 275.524,216.853 274.5,215.5C 273.802,212.731 272.468,210.398 270.5,208.5C 271.326,207.549 271.492,206.549 271,205.5C 268.711,208.827 266.378,212.161 264,215.5C 262.951,214.483 261.784,214.316 260.5,215C 258.641,216.558 257.141,218.391 256,220.5C 253.446,219.229 250.613,218.562 247.5,218.5C 237.483,218.992 227.483,219.659 217.5,220.5C 212.167,221.322 207.667,223.655 204,227.5C 203.51,228.793 203.343,230.127 203.5,231.5C 220.837,231.667 238.17,231.5 255.5,231C 259.183,230.301 262.683,229.135 266,227.5C 266.671,228.252 267.504,228.586 268.5,228.5C 263.841,231 258.841,232.834 253.5,234C 236.837,234.5 220.17,234.667 203.5,234.5C 200.856,232.484 200.023,229.817 201,226.5C 203.177,223.477 206.011,221.477 209.5,220.5C 214.283,219.491 218.95,218.491 223.5,217.5C 233.032,216.826 242.699,215.992 252.5,215C 257.674,213.249 262.341,210.749 266.5,207.5C 273.735,202.007 278.735,195.007 281.5,186.5 Z"/></g>
<g><path style="opacity:1" fill="#c0cfd7" d="M 215.5,206.5 C 215.179,208.048 214.179,208.715 212.5,208.5C 212.5,209.5 212.5,210.5 212.5,211.5C 208.019,211.425 203.686,212.092 199.5,213.5C 204.91,211.472 210.243,209.139 215.5,206.5 Z"/></g>
<g><path style="opacity:1" fill="#9eb3be" d="M 67.5,209.5 C 69.5869,210.585 70.9202,212.251 71.5,214.5C 69.4131,213.415 68.0798,211.749 67.5,209.5 Z"/></g>
<g><path style="opacity:1" fill="#8ea2b3" d="M 159.5,217.5 C 161.698,217.12 163.365,217.787 164.5,219.5C 162.597,219.204 160.93,218.537 159.5,217.5 Z"/></g>
<g><path style="opacity:1" fill="#4a6874" d="M 223.5,217.5 C 218.95,218.491 214.283,219.491 209.5,220.5C 213.738,218.044 218.404,217.044 223.5,217.5 Z"/></g>
<g><path style="opacity:1" fill="#bacfd9" d="M 199.5,213.5 C 198.469,214.249 197.302,214.915 196,215.5C 195.5,226.161 195.333,236.828 195.5,247.5C 204.017,247.174 212.35,247.507 220.5,248.5C 211.5,248.5 202.5,248.5 193.5,248.5C 193.333,237.162 193.5,225.828 194,214.5C 195.699,213.594 197.533,213.261 199.5,213.5 Z"/></g>
<g><path style="opacity:1" fill="#0d465d" d="M 269.5,228.5 C 269.167,228.5 268.833,228.5 268.5,228.5C 267.504,228.586 266.671,228.252 266,227.5C 262.683,229.135 259.183,230.301 255.5,231C 238.17,231.5 220.837,231.667 203.5,231.5C 203.343,230.127 203.51,228.793 204,227.5C 207.667,223.655 212.167,221.322 217.5,220.5C 227.483,219.659 237.483,218.992 247.5,218.5C 250.613,218.562 253.446,219.229 256,220.5C 257.141,218.391 258.641,216.558 260.5,215C 261.784,214.316 262.951,214.483 264,215.5C 266.378,212.161 268.711,208.827 271,205.5C 271.492,206.549 271.326,207.549 270.5,208.5C 272.468,210.398 273.802,212.731 274.5,215.5C 275.524,216.853 276.857,217.52 278.5,217.5C 279.326,213.405 280.993,212.905 283.5,216C 281.551,217.835 279.217,219.001 276.5,219.5C 277.833,220.5 277.833,221.5 276.5,222.5C 274.696,223.768 272.696,224.435 270.5,224.5C 270.567,225.959 270.234,227.292 269.5,228.5 Z"/></g>
<g><path style="opacity:1" fill="#7a969d" d="M 91.5,227.5 C 93.153,227.66 94.4863,228.326 95.5,229.5C 93.6203,229.771 92.287,229.104 91.5,227.5 Z"/></g>
<g><path style="opacity:1" fill="#a1b6c0" d="M 101.5,231.5 C 124.818,232.414 148.151,232.747 171.5,232.5C 161.013,233.494 150.346,233.828 139.5,233.5C 128.162,233.667 116.828,233.5 105.5,233C 103.942,232.79 102.609,232.29 101.5,231.5 Z"/></g>
<g><path style="opacity:1" fill="#dbe6ed" d="M 167.5,221.5 C 169.746,222.455 172.079,223.122 174.5,223.5C 175.676,227.305 175.009,230.805 172.5,234C 161.326,234.826 150.326,234.659 139.5,233.5C 150.346,233.828 161.013,233.494 171.5,232.5C 173.377,231.341 173.877,229.674 173,227.5C 171.301,225.304 169.467,223.304 167.5,221.5 Z"/></g>
<g><path style="opacity:1" fill="#e3eff3" d="M 268.5,228.5 C 268.833,228.5 269.167,228.5 269.5,228.5C 269.833,228.5 270.167,228.5 270.5,228.5C 269.534,230.057 268.2,231.39 266.5,232.5C 262.392,233.527 258.392,234.86 254.5,236.5C 237.372,235.847 220.372,235.18 203.5,234.5C 220.17,234.667 236.837,234.5 253.5,234C 258.841,232.834 263.841,231 268.5,228.5 Z"/></g>
<g><path style="opacity:1" fill="#a5b6c0" d="M 179.5,214.5 C 180.833,225.833 180.833,237.167 179.5,248.5C 166.833,248.5 154.167,248.5 141.5,248.5C 153.989,247.505 166.656,247.171 179.5,247.5C 179.5,236.5 179.5,225.5 179.5,214.5 Z"/></g>
<g><path style="opacity:1" fill="#3a5665" d="M 141.5,248.5 C 154.167,248.5 166.833,248.5 179.5,248.5C 166.994,249.167 154.327,249.833 141.5,250.5C 140.817,253.461 139.984,253.795 139,251.5C 137.648,253.594 137.148,255.927 137.5,258.5C 135.32,253.802 136.653,250.468 141.5,248.5 Z"/></g>
<g><path style="opacity:1" fill="#8ba2ae" d="M 138.5,260.5 C 140.179,260.892 141.846,261.392 143.5,262C 172.831,262.5 202.165,262.667 231.5,262.5C 201.336,263.664 171.003,263.831 140.5,263C 139.619,262.292 138.953,261.458 138.5,260.5 Z"/></g>
</svg>
